HIERARCHY
ROOT Hips
{
    OFFSET 0.000000 97.120003 0.000000
    CHANNELS 6 Xposition Yposition Zposition Yrotation Xrotation Zrotation
    JOINT RightUpLeg
    {
        OFFSET -11.000000 -0.000000 0.000000
        CHANNELS 3 Yrotation Xrotation Zrotation
        JOINT RightLeg
        {
            OFFSET 0.000000 -45.062000 0.000000
            CHANNELS 3 Yrotation Xrotation Zrotation
            JOINT RightFoot
            {
                OFFSET 0.000000 -42.057999 0.000000
                CHANNELS 3 Yrotation Xrotation Zrotation
                End Site
                {
                    OFFSET 0.000000 -10.000000 15.120000
                }
            }
        }
    }
    JOINT LeftUpLeg
    {
        OFFSET 11.000000 -0.000000 0.000000
        CHANNELS 3 Yrotation Xrotation Zrotation
        JOINT LeftLeg
        {
            OFFSET 0.000000 -45.062000 0.000000
            CHANNELS 3 Yrotation Xrotation Zrotation
            JOINT LeftFoot
            {
                OFFSET 0.000000 -42.057999 0.000000
                CHANNELS 3 Yrotation Xrotation Zrotation
                End Site
                {
                    OFFSET 0.000000 -10.000000 15.120000
                }
            }
        }
    }
    JOINT Spine
    {
        OFFSET 0.000000 8.120000 0.000000
        CHANNELS 3 Yrotation Xrotation Zrotation
        JOINT Spine1
        {
            OFFSET 0.000000 17.980000 0.000000
            CHANNELS 3 Yrotation Xrotation Zrotation
            JOINT Spine2
            {
                OFFSET 0.000000 12.760000 0.000000
                CHANNELS 3 Yrotation Xrotation Zrotation
                JOINT Neck
                {
                    OFFSET 0.000000 19.139999 0.000000
                    CHANNELS 3 Yrotation Xrotation Zrotation
                    JOINT Neck1
                    {
                        OFFSET 0.000000 4.250000 0.000000
                        CHANNELS 3 Yrotation Xrotation Zrotation
                        JOINT Head
                        {
                            OFFSET 0.000000 4.250000 0.000000
                            CHANNELS 3 Yrotation Xrotation Zrotation
                            End Site
                            {
                                OFFSET 0.000000 19.120001 0.000000
                            }
                        }
                    }
                }
                JOINT RightShoulder
                {
                    OFFSET -2.900000 13.340000 0.000000
                    CHANNELS 3 Yrotation Xrotation Zrotation
                    JOINT RightArm
                    {
                        OFFSET -16.100000 0.000000 0.000000
                        CHANNELS 3 Yrotation Xrotation Zrotation
                        JOINT RightForeArm
                        {
                            OFFSET -28.000000 0.000000 0.000000
                            CHANNELS 3 Yrotation Xrotation Zrotation
                            JOINT RightHand
                            {
                                OFFSET -26.000000 0.000000 0.000000
                                CHANNELS 3 Yrotation Xrotation Zrotation
                                JOINT RightHandThumb1
                                {
                                    OFFSET -1.937000 -0.484000 2.518000
                                    CHANNELS 3 Yrotation Xrotation Zrotation
                                    JOINT RightHandThumb2
                                    {
                                        OFFSET -3.872000 0.000000 0.000000
                                        CHANNELS 3 Yrotation Xrotation Zrotation
                                        JOINT RightHandThumb3
                                        {
                                            OFFSET -2.690000 0.000000 0.000000
                                            CHANNELS 3 Yrotation Xrotation Zrotation
                                            End Site
                                            {
                                                OFFSET -2.537000 0.000000 0.000000
                                            }
                                        }
                                    }
                                }
                                JOINT RightInHandIndex
                                {
                                    OFFSET -3.389000 0.535000 2.080000
                                    CHANNELS 3 Yrotation Xrotation Zrotation
                                    JOINT RightHandIndex1
                                    {
                                        OFFSET -5.485000 -0.096000 1.051000
                                        CHANNELS 3 Yrotation Xrotation Zrotation
                                        JOINT RightHandIndex2
                                        {
                                            OFFSET -3.806000 0.000000 0.000000
                                            CHANNELS 3 Yrotation Xrotation Zrotation
                                            JOINT RightHandIndex3
                                            {
                                                OFFSET -2.158000 0.000000 0.000000
                                                CHANNELS 3 Yrotation Xrotation Zrotation
                                                End Site
                                                {
                                                    OFFSET -1.898000 0.000000 0.000000
                                                }
                                            }
                                        }
                                    }
                                }
                                JOINT RightInHandMiddle
                                {
                                    OFFSET -3.556000 0.544000 0.796000
                                    CHANNELS 3 Yrotation Xrotation Zrotation
                                    JOINT RightHandMiddle1
                                    {
                                        OFFSET -5.441000 -0.088000 0.330000
                                        CHANNELS 3 Yrotation Xrotation Zrotation
                                        JOINT RightHandMiddle2
                                        {
                                            OFFSET -4.153000 0.000000 0.000000
                                            CHANNELS 3 Yrotation Xrotation Zrotation
                                            JOINT RightHandMiddle3
                                            {
                                                OFFSET -2.603000 0.000000 0.000000
                                                CHANNELS 3 Yrotation Xrotation Zrotation
                                                End Site
                                                {
                                                    OFFSET -2.076000 0.000000 0.000000
                                                }
                                            }
                                        }
                                    }
                                }
                                JOINT RightInHandRing
                                {
                                    OFFSET -3.539000 0.566000 -0.136000
                                    CHANNELS 3 Yrotation Xrotation Zrotation
                                    JOINT RightHandRing1
                                    {
                                        OFFSET -4.873000 -0.023000 -0.504000
                                        CHANNELS 3 Yrotation Xrotation Zrotation
                                        JOINT RightHandRing2
                                        {
                                            OFFSET -3.619000 0.000000 0.000000
                                            CHANNELS 3 Yrotation Xrotation Zrotation
                                            JOINT RightHandRing3
                                            {
                                                OFFSET -2.511000 0.000000 0.000000
                                                CHANNELS 3 Yrotation Xrotation Zrotation
                                                End Site
                                                {
                                                    OFFSET -1.952000 0.000000 0.000000
                                                }
                                            }
                                        }
                                    }
                                }
                                JOINT RightInHandPinky
                                {
                                    OFFSET -3.324000 0.494000 -1.264000
                                    CHANNELS 3 Yrotation Xrotation Zrotation
                                    JOINT RightHandPinky1
                                    {
                                        OFFSET -4.354000 -0.023000 -1.147000
                                        CHANNELS 3 Yrotation Xrotation Zrotation
                                        JOINT RightHandPinky2
                                        {
                                            OFFSET -2.898000 0.000000 0.000000
                                            CHANNELS 3 Yrotation Xrotation Zrotation
                                            JOINT RightHandPinky3
                                            {
                                                OFFSET -1.831000 0.000000 0.000000
                                                CHANNELS 3 Yrotation Xrotation Zrotation
                                                End Site
                                                {
                                                    OFFSET -1.730000 0.000000 0.000000
                                                }
                                            }
                                        }
                                    }
                                }
                            }
                        }
                    }
                }
                JOINT LeftShoulder
                {
                    OFFSET 2.900000 13.340000 0.000000
                    CHANNELS 3 Yrotation Xrotation Zrotation
                    JOINT LeftArm
                    {
                        OFFSET 16.100000 0.000000 0.000000
                        CHANNELS 3 Yrotation Xrotation Zrotation
                        JOINT LeftForeArm
                        {
                            OFFSET 28.000000 0.000000 0.000000
                            CHANNELS 3 Yrotation Xrotation Zrotation
                            JOINT LeftHand
                            {
                                OFFSET 26.000000 0.000000 0.000000
                                CHANNELS 3 Yrotation Xrotation Zrotation
                                JOINT LeftHandThumb1
                                {
                                    OFFSET 1.937000 -0.484000 2.518000
                                    CHANNELS 3 Yrotation Xrotation Zrotation
                                    JOINT LeftHandThumb2
                                    {
                                        OFFSET 3.872000 0.000000 0.000000
                                        CHANNELS 3 Yrotation Xrotation Zrotation
                                        JOINT LeftHandThumb3
                                        {
                                            OFFSET 2.690000 0.000000 0.000000
                                            CHANNELS 3 Yrotation Xrotation Zrotation
                                            End Site
                                            {
                                                OFFSET 2.537000 0.000000 0.000000
                                            }
                                        }
                                    }
                                }
                                JOINT LeftInHandIndex
                                {
                                    OFFSET 3.389000 0.535000 2.080000
                                    CHANNELS 3 Yrotation Xrotation Zrotation
                                    JOINT LeftHandIndex1
                                    {
                                        OFFSET 5.485000 -0.096000 1.051000
                                        CHANNELS 3 Yrotation Xrotation Zrotation
                                        JOINT LeftHandIndex2
                                        {
                                            OFFSET 3.806000 0.000000 0.000000
                                            CHANNELS 3 Yrotation Xrotation Zrotation
                                            JOINT LeftHandIndex3
                                            {
                                                OFFSET 2.158000 0.000000 0.000000
                                                CHANNELS 3 Yrotation Xrotation Zrotation
                                                End Site
                                                {
                                                    OFFSET 1.898000 0.000000 0.000000
                                                }
                                            }
                                        }
                                    }
                                }
                                JOINT LeftInHandMiddle
                                {
                                    OFFSET 3.556000 0.544000 0.796000
                                    CHANNELS 3 Yrotation Xrotation Zrotation
                                    JOINT LeftHandMiddle1
                                    {
                                        OFFSET 5.441000 -0.088000 0.330000
                                        CHANNELS 3 Yrotation Xrotation Zrotation
                                        JOINT LeftHandMiddle2
                                        {
                                            OFFSET 4.153000 0.000000 0.000000
                                            CHANNELS 3 Yrotation Xrotation Zrotation
                                            JOINT LeftHandMiddle3
                                            {
                                                OFFSET 2.603000 0.000000 0.000000
                                                CHANNELS 3 Yrotation Xrotation Zrotation
                                                End Site
                                                {
                                                    OFFSET 2.076000 0.000000 0.000000
                                                }
                                            }
                                        }
                                    }
                                }
                                JOINT LeftInHandRing
                                {
                                    OFFSET 3.539000 0.566000 -0.136000
                                    CHANNELS 3 Yrotation Xrotation Zrotation
                                    JOINT LeftHandRing1
                                    {
                                        OFFSET 4.873000 -0.023000 -0.504000
                                        CHANNELS 3 Yrotation Xrotation Zrotation
                                        JOINT LeftHandRing2
                                        {
                                            OFFSET 3.619000 0.000000 0.000000
                                            CHANNELS 3 Yrotation Xrotation Zrotation
                                            JOINT LeftHandRing3
                                            {
                                                OFFSET 2.511000 0.000000 0.000000
                                                CHANNELS 3 Yrotation Xrotation Zrotation
                                                End Site
                                                {
                                                    OFFSET 1.952000 0.000000 0.000000
                                                }
                                            }
                                        }
                                    }
                                }
                                JOINT LeftInHandPinky
                                {
                                    OFFSET 3.324000 0.494000 -1.264000
                                    CHANNELS 3 Yrotation Xrotation Zrotation
                                    JOINT LeftHandPinky1
                                    {
                                        OFFSET 4.354000 -0.023000 -1.147000
                                        CHANNELS 3 Yrotation Xrotation Zrotation
                                        JOINT LeftHandPinky2
                                        {
                                            OFFSET 2.898000 0.000000 0.000000
                                            CHANNELS 3 Yrotation Xrotation Zrotation
                                            JOINT LeftHandPinky3
                                            {
                                                OFFSET 1.831000 0.000000 0.000000
                                                CHANNELS 3 Yrotation Xrotation Zrotation
                                                End Site
                                                {
                                                    OFFSET 1.730000 0.000000 0.000000
                                                }
                                            }
                                        }
                                    }
                                }
                            }
                        }
                    }
                }
            }
        }
    }
}
MOTION
Frames: 4
Frame Time: 0.010417
85.531769 97.136597 -60.340614 167.785675 2.662114 -0.865405 178.650024 177.621094 177.939590 176.499268 -178.117065 -177.127472 15.201252 -0.910121 2.531992 4.851870 2.699899 0.798193 178.237427 178.260498 -178.561768 1.520546 -5.467051 -4.673651 179.658798 179.319748 -179.681152 179.658722 179.331528 -179.465912 178.396530 179.487228 -179.323883 179.999802 -169.784637 173.492615 179.999695 -168.082062 173.260254 153.087250 -170.787842 179.696136 5.589308 3.465299 8.093159 156.329849 -141.551453 -133.568146 80.718819 -31.052895 -29.469624 7.780437 -41.779854 -24.991346 74.412636 33.178425 16.173473 0.000000 -0.000002 -0.910568 180.000000 -180.000000 179.393570 0.000000 -0.000003 -0.000000 14.999999 -0.000000 -0.411585 0.000000 -0.000000 0.000000 0.000000 -0.000000 0.000000 0.000000 -0.000003 -0.000000 0.000000 -0.000000 1.892390 180.000000 -179.999985 -178.107605 0.000000 -0.000000 1.260332 0.000000 -0.000003 -0.000000 170.000000 -179.999985 -177.258957 0.000000 -0.000000 2.741046 0.000001 -0.000000 1.825535 0.000000 -0.000003 -0.000000 160.000015 -180.000000 -175.237534 0.000003 -0.000000 7.143705 0.000000 -0.000000 4.757707 176.724106 178.385071 170.154526 22.678049 -31.227089 -57.314453 111.642990 -147.631500 -149.537643 174.551926 -145.371201 171.197281 138.925583 137.555695 -167.158401 0.000000 0.000000 -0.849739 180.000000 -180.000000 179.434067 0.000000 -0.000000 0.000000 165.000000 -179.999985 176.118500 0.000003 0.000000 -3.175775 180.000000 -179.999985 177.776962 0.000000 -0.000000 0.000000 0.000000 0.000000 -4.135265 0.000000 0.000000 -4.135262 0.000000 -0.000003 -2.754081 0.000000 -0.000000 0.000000 9.999999 0.000003 -8.646903 0.000000 -0.000003 -8.646904 0.000000 0.000000 -5.758842 0.000000 -0.000000 0.000000 20.000002 -0.000001 -8.769656 0.000003 0.000000 -13.154483 180.000000 179.999985 171.239105
85.513199 97.135612 -60.348381 167.832932 2.573485 -0.885693 178.712631 177.520859 177.952484 176.418518 -178.120529 -177.126038 15.178053 -0.938940 2.522776 4.867872 2.795285 0.841419 178.190521 178.265808 -178.572723 1.498613 -5.502407 -4.674349 179.645035 179.417068 -179.703903 179.644989 179.427017 -179.504089 178.334595 179.557373 -179.371689 179.999802 -169.989441 173.580154 179.999710 -168.321014 173.350937 153.375107 -170.952347 179.656021 5.609743 3.575712 8.061940 155.464584 -142.022324 -132.669357 81.315048 -30.583548 -29.486139 7.784002 -41.709366 -25.113953 74.445663 33.168167 16.246988 180.000000 -180.000000 179.103577 0.000003 0.000000 -0.597019 0.000000 -0.000000 0.000000 15.000004 -0.000003 -0.154060 180.000000 -179.999985 -180.000000 180.000000 -179.999985 -180.000000 0.000000 -0.000000 0.000000 180.000000 180.000000 -178.074677 0.000000 -0.000000 1.925334 180.000000 -179.999985 -178.717728 0.000000 -0.000000 0.000000 170.000000 -180.000000 -177.256729 0.000000 -0.000000 2.743277 0.000001 -0.000003 1.827022 0.000000 -0.000000 0.000000 160.000015 179.999985 -175.263367 0.000000 -0.000000 7.104950 0.000000 0.000003 4.731896 176.776917 178.349564 170.195572 22.742149 -31.098063 -57.453678 111.681198 -148.129868 -149.375885 174.723969 -145.436417 170.929977 138.988770 137.368439 -167.103531 0.000002 0.000000 -0.805458 180.000000 179.999985 179.463562 0.000000 -0.000000 0.000000 165.000015 -180.000000 176.146408 0.000000 0.000000 -3.152933 0.000000 0.000000 -2.207056 0.000000 -0.000000 0.000000 180.000000 179.999985 175.944641 180.000000 -180.000000 175.944641 0.000000 0.000000 -2.700880 0.000000 -0.000000 0.000000 10.000003 -0.000004 -8.535059 180.000000 -180.000000 171.464951 180.000000 -179.999985 174.315643 0.000000 -0.000000 0.000000 19.999990 -0.000000 -8.600140 0.000000 0.000000 -12.900211 0.000000 0.000000 -8.591541
85.493279 97.135246 -60.354580 167.866638 2.484319 -0.904515 178.774582 177.424515 177.965881 176.357834 -178.128403 -177.131302 15.149440 -0.971498 2.514396 4.897654 2.889642 0.882350 178.149048 178.274475 -178.588211 1.469251 -5.530087 -4.666631 179.634094 179.510315 -179.726532 179.634048 179.518524 -179.542130 178.285553 179.624985 -179.419052 179.999771 -170.193741 173.668198 179.999680 -168.559341 173.442108 153.666916 -171.117310 179.616104 5.616750 3.681192 8.025780 154.570343 -142.487747 -131.745880 81.867981 -30.139309 -29.415569 7.781613 -41.645382 -25.225914 74.393318 33.127110 16.256664 0.000007 0.000005 -0.837768 180.000000 180.000000 179.442047 0.000000 -0.000000 0.000000 14.999999 -0.000002 0.044754 180.000000 180.000000 -179.963379 0.000000 0.000003 0.025631 0.000000 -0.000000 0.000000 0.000000 0.000003 1.952915 0.000000 -0.000000 1.952914 180.000000 -179.999985 -178.699356 0.000000 -0.000000 0.000000 170.000000 180.000000 -177.257996 180.000000 -179.999985 -177.257996 0.000001 0.000003 1.826168 0.000000 -0.000000 0.000000 160.000015 180.000000 -175.298630 0.000001 -0.000004 7.052041 0.000000 -0.000000 4.696662 176.822205 178.297760 170.236816 22.820799 -30.988333 -57.596226 111.768280 -148.614624 -149.238708 174.878082 -145.505493 170.700302 139.133972 137.329483 -166.923645 0.000002 0.000000 -0.770247 180.000000 -180.000000 179.487015 0.000000 -0.000000 0.000000 165.000000 -180.000000 176.170822 0.000000 -0.000003 -3.132950 0.000000 -0.000003 -2.193069 0.000000 -0.000000 0.000000 0.000003 0.000000 -3.991810 0.000004 -0.000003 -3.991806 0.000000 0.000000 -2.658545 0.000000 -0.000000 0.000000 10.000002 -0.000001 -8.464102 0.000000 0.000000 -8.464099 0.000003 0.000000 -5.637091 0.000000 -0.000000 0.000000 19.999994 0.000001 -8.499386 180.000000 -180.000000 167.250916 0.000003 0.000000 -8.490896
85.472679 97.135292 -60.358685 167.889877 2.392045 -0.920373 178.803864 177.331650 177.979248 176.339767 -178.141830 -177.144928 15.120485 -1.007959 2.503358 4.921601 2.984755 0.916773 178.105316 178.282425 -178.603134 1.458089 -5.552698 -4.652824 179.625031 179.597260 -179.749863 179.624939 179.603882 -179.581360 178.244888 179.688492 -179.467850 179.999741 -170.397324 173.759430 179.999649 -168.796875 173.536591 153.959503 -171.282852 179.578873 5.617651 3.782224 7.992890 153.698166 -142.965805 -130.810410 82.409401 -29.708855 -29.336290 7.765800 -41.595028 -25.318115 74.341667 33.120274 16.228159 180.000000 -180.000000 179.190567 0.000000 0.000000 -0.539075 0.000000 -0.000000 0.000000 14.999999 -0.000000 0.157328 0.000001 -0.000000 0.128723 180.000000 180.000000 -179.909882 0.000000 -0.000000 0.000000 0.000000 -0.000000 1.965273 0.000000 -0.000003 1.965273 180.000000 180.000000 -178.691116 0.000000 -0.000000 0.000000 170.000000 180.000000 -177.259109 0.000000 0.000003 2.740897 0.000001 0.000003 1.825438 0.000000 -0.000000 0.000000 160.000015 -179.999985 -175.322433 0.000002 -0.000000 7.016356 0.000000 -0.000000 4.672895 176.867340 178.242813 170.280746 23.025978 -30.900560 -57.751034 111.895081 -149.055237 -149.205643 175.043396 -145.564194 170.462372 139.319107 137.345627 -166.675140 180.000000 179.999985 179.268768 180.000000 -179.999985 179.513000 0.000000 -0.000003 0.000000 165.000015 180.000000 176.207825 0.000000 0.000000 -3.102685 0.000000 0.000000 -2.171885 0.000000 -0.000003 0.000000 180.000000 179.999985 176.061874 0.000000 -0.000003 -3.938130 0.000000 -0.000003 -2.622793 0.000000 -0.000003 0.000000 9.999997 -0.000001 -8.412167 180.000000 -180.000000 171.587830 0.000000 0.000000 -5.602501 0.000000 -0.000003 0.000000 20.000000 0.000001 -8.422633 180.000000 -179.999985 167.366043 0.000000 0.000000 -8.414218
